<svg width="34" height="34" viewBox="0 0 34 34" fill="none" xmlns="http://www.w3.org/2000/svg">
<path fill-rule="evenodd" clip-rule="evenodd" d="M12.0503 8.05025C13.363 6.7375 15.1435 6 17 6C18.8565 6 20.637 6.7375 21.9498 8.05025C23.2625 9.36301 24 11.1435 24 13C24 16.4057 24.4866 18.5369 24.9398 19.7833C25.1664 20.4063 25.3853 20.8102 25.533 21.0441C25.607 21.1612 25.6635 21.2364 25.695 21.2757C25.7088 21.293 25.7178 21.3034 25.7214 21.3074C25.9959 21.5933 26.0761 22.0153 25.9239 22.3827C25.7691 22.7564 25.4045 23 25 23H9.00003C8.59557 23 8.23093 22.7564 8.07615 22.3827C7.92397 22.0153 8.00412 21.5933 8.27869 21.3074C8.28224 21.3034 8.29126 21.293 8.3051 21.2757C8.33651 21.2364 8.39307 21.1612 8.46704 21.0441C8.61476 20.8102 8.83368 20.4063 9.06024 19.7833C9.51345 18.5369 10 16.4057 10 13C10 11.1435 10.7375 9.36301 12.0503 8.05025ZM8.2905 21.2953C8.29065 21.2952 8.2908 21.295 8.29096 21.2949L8.2906 21.2952L8.2905 21.2953ZM23.2698 21C23.2002 20.8359 23.1299 20.6584 23.0602 20.4667C22.5135 18.9631 22 16.5943 22 13C22 11.6739 21.4732 10.4021 20.5356 9.46447C19.5979 8.52678 18.3261 8 17 8C15.6739 8 14.4022 8.52678 13.4645 9.46447C12.5268 10.4021 12 11.6739 12 13C12 16.5943 11.4866 18.9631 10.9398 20.4667C10.8701 20.6584 10.7999 20.8359 10.7302 21H23.2698ZM8.29175 21.2941C8.29175 21.2941 8.29174 21.2941 8.29174 21.2941L8.29135 21.2945C8.29149 21.2943 8.29162 21.2942 8.29175 21.2941ZM14.7683 25.135C15.246 24.8579 15.8579 25.0205 16.135 25.4982C16.2229 25.6498 16.3491 25.7756 16.5009 25.863C16.6527 25.9504 16.8248 25.9965 17 25.9965C17.1752 25.9965 17.3473 25.9504 17.4991 25.863C17.6509 25.7756 17.7771 25.6498 17.865 25.4982C18.1421 25.0205 18.7541 24.8579 19.2318 25.135C19.7095 25.4121 19.8722 26.024 19.595 26.5018C19.3313 26.9564 18.9528 27.3337 18.4974 27.5961C18.0419 27.8584 17.5256 27.9965 17 27.9965C16.4745 27.9965 15.9581 27.8584 15.5027 27.5961C15.0473 27.3337 14.6687 26.9564 14.405 26.5018C14.1279 26.024 14.2905 25.4121 14.7683 25.135Z" fill="#808080"/>
</svg>
