<svg width="34" height="34" viewBox="0 0 34 34" fill="none" xmlns="http://www.w3.org/2000/svg">
<path fill-rule="evenodd" clip-rule="evenodd" d="M17 9C15.3431 9 14 10.3431 14 12C14 13.6569 15.3431 15 17 15C18.6569 15 20 13.6569 20 12C20 10.3431 18.6569 9 17 9ZM12 12C12 9.23858 14.2386 7 17 7C19.7614 7 22 9.23858 22 12C22 14.7614 19.7614 17 17 17C14.2386 17 12 14.7614 12 12ZM8 25C8 21.6863 10.6863 19 14 19H20C23.3137 19 26 21.6863 26 25V26C26 26.5523 25.5523 27 25 27C24.4477 27 24 26.5523 24 26V25C24 22.7909 22.2091 21 20 21H14C11.7909 21 10 22.7909 10 25V26C10 26.5523 9.55228 27 9 27C8.44772 27 8 26.5523 8 26V25Z" fill="#808080"/>
</svg>
