<svg width="14" height="14" viewBox="0 0 14 14" fill="none" xmlns="http://www.w3.org/2000/svg">
<path fill-rule="evenodd" clip-rule="evenodd" d="M6.33334 0.25C2.9736 0.25 0.25 2.9736 0.25 6.33333C0.25 9.69307 2.9736 12.4167 6.33334 12.4167C7.7429 12.4167 9.04049 11.9373 10.072 11.1326L12.4697 13.5303L12.5538 13.6029C12.8474 13.8208 13.2641 13.7966 13.5303 13.5303C13.8232 13.2374 13.8232 12.7626 13.5303 12.4697L11.1326 10.0719C11.9373 9.04048 12.4167 7.74289 12.4167 6.33333C12.4167 2.9736 9.69307 0.25 6.33334 0.25ZM9.63844 9.50876C10.4301 8.68502 10.9167 7.566 10.9167 6.33333C10.9167 3.80203 8.86465 1.75 6.33334 1.75C3.80203 1.75 1.75 3.80203 1.75 6.33333C1.75 8.86464 3.80203 10.9167 6.33334 10.9167C7.56601 10.9167 8.68502 10.4301 9.50876 9.63844C9.52742 9.6146 9.54772 9.59162 9.56968 9.56967C9.59163 9.54772 9.6146 9.52742 9.63844 9.50876Z" fill="#808080"/>
</svg>
