<svg width="24" height="24" viewBox="0 0 24 24" fill="none" xmlns="http://www.w3.org/2000/svg">
<path fill-rule="evenodd" clip-rule="evenodd" d="M10 5C9.73478 5 9.48043 5.10536 9.29289 5.29289C9.10536 5.48043 9 5.73478 9 6H15C15 5.73478 14.8946 5.48043 14.7071 5.29289C14.5196 5.10536 14.2652 5 14 5H10ZM7 8V15.2C7 16.0566 7.00078 16.6389 7.03755 17.089C7.07337 17.5274 7.1383 17.7516 7.21799 17.908C7.40973 18.2843 7.7157 18.5903 8.09202 18.782C8.24842 18.8617 8.47262 18.9266 8.91104 18.9624C9.36113 18.9992 9.94342 19 10.8 19H13.2C14.0566 19 14.6389 18.9992 15.089 18.9624C15.5274 18.9266 15.7516 18.8617 15.908 18.782C16.2843 18.5903 16.5903 18.2843 16.782 17.908C16.8617 17.7516 16.9266 17.5274 16.9624 17.089C16.9992 16.6389 17 16.0566 17 15.2V8H7ZM19 8H20C20.5523 8 21 7.55228 21 7C21 6.44772 20.5523 6 20 6H17C17 5.20435 16.6839 4.44129 16.1213 3.87868C15.5587 3.31607 14.7956 3 14 3H10C9.20435 3 8.44129 3.31607 7.87868 3.87868C7.31607 4.44129 7 5.20435 7 6H4C3.44772 6 3 6.44772 3 7C3 7.55228 3.44772 8 4 8H5L5 15.2413C4.99999 16.0463 4.99998 16.7106 5.04419 17.2518C5.09012 17.8139 5.18868 18.3306 5.43597 18.816C5.81947 19.5686 6.43139 20.1805 7.18404 20.564C7.66937 20.8113 8.18608 20.9099 8.74817 20.9558C9.28936 21 9.95372 21 10.7587 21H13.2413C14.0463 21 14.7106 21 15.2518 20.9558C15.8139 20.9099 16.3306 20.8113 16.816 20.564C17.5686 20.1805 18.1805 19.5686 18.564 18.816C18.8113 18.3306 18.9099 17.8139 18.9558 17.2518C19 16.7106 19 16.0463 19 15.2413V8ZM10 10C10.5523 10 11 10.4477 11 11V16C11 16.5523 10.5523 17 10 17C9.44772 17 9 16.5523 9 16V11C9 10.4477 9.44772 10 10 10ZM14 10C14.5523 10 15 10.4477 15 11V16C15 16.5523 14.5523 17 14 17C13.4477 17 13 16.5523 13 16V11C13 10.4477 13.4477 10 14 10Z" fill="#808080"/>
</svg>
